<svg xmlns="http://www.w3.org/2000/svg" xml:space="preserve" width="110" height="110" version="1.0" viewBox="0 0 110 110" id="battery">
  <g id="Multicolor">
    <circle cx="55" cy="55" r="55" fill="#32BEA6"></circle>
    <path fill="#FFF" d="M71 31h-8v-4a4 4 0 0 0-4-4h-8a4 4 0 0 0-4 4v4h-8a6 6 0 0 0-6 6v44a6 6 0 0 0 6 6h32a6 6 0 0 0 6-6V37a6 6 0 0 0-6-6z"></path>
    <path fill="#059BBF" d="M73 81a2 2 0 0 1-2 2H39a2 2 0 0 1-2-2V37a2 2 0 0 1 2-2h32a2 2 0 0 1 2 2v44z"></path>
    <path fill="#21B2D1" d="M55 35H39a2 2 0 0 0-2 2v44a2 2 0 0 0 2 2h16V35z"></path>
    <path fill="#FFF" d="M63 42.875l-19.5 19.5h9.75l-3.25 13 19.5-19.5h-9.75z"></path>
  </g>
</svg>
