<svg xmlns="http://www.w3.org/2000/svg" width="48" height="48" id="graph">
  <g transform="translate(0 -1004.362)">
    <circle cx="24" cy="1028.362" r="24" fill="#576d7e"></circle>
    <g transform="translate(-1521.531 -147.508)">
      <path fill="none" stroke="#92a3b3" stroke-linecap="square" d="M1534.531 1165.878v20h0m3-20v20h0m3-20v20h0m3-20v20h0m3-20v20h0m3-20v20h0m3-20v20h0m3-20v20h0m2.5-17.5h-26.5 0m26.5 3h-26.5 0m26.5 3h-26.5 0m26.5 3h-26.5 0m26.5 3h-26.5 0m26.5 3h-26.5 0"></path>
      <rect width="26.484" height="20.016" x="1531.531" y="1165.862" fill="#cdd7e0" stroke="#cdd7e0" opacity=".716" rx="1.038" ry=".955"></rect>
      <path fill="none" stroke="#34485c" stroke-linecap="round" stroke-linejoin="round" d="M1533.031 1181.878c3.391-3.735 5.627-6.539 8.69-10l9.824 7.823 6.989-9.282"></path>
      <circle cx="3" cy="22" r="2" fill="#25b39e" transform="translate(1529.531 1160.378)"></circle>
      <circle cx="3" cy="22" r="2" fill="#fcd062" transform="translate(1538.531 1150.378)"></circle>
      <circle cx="3" cy="22" r="2" fill="#f05542" transform="translate(1548.531 1156.378)"></circle>
      <circle cx="3" cy="22" r="2" fill="#4bbfeb" transform="translate(1555.531 1148.378)"></circle>
    </g>
  </g>
</svg>
