<svg xmlns="http://www.w3.org/2000/svg" xmlns:xlink="http://www.w3.org/1999/xlink" width="64" height="64" id="settings">
  <defs>
    <path id="a" d="M.06 64V.04H64V64z"></path>
  </defs>
  <g fill="none" fill-rule="evenodd">
    <path fill="#FFFFFE" d="M20 37.424V18a2 2 0 1 0-4 0v19.424A4.95 4.95 0 0 1 18 37a4.95 4.95 0 0 1 2 .424M34 20.424V18a2 2 0 1 0-4 0v2.424A4.95 4.95 0 0 1 32 20a4.95 4.95 0 0 1 2 .424M48 31.497V18a2 2 0 1 0-4 0v13.369A4.969 4.969 0 0 1 45.865 31c.767 0 1.485.188 2.135.497M16 46.576V50a2 2 0 0 0 4 0v-3.424A4.95 4.95 0 0 1 18 47a4.95 4.95 0 0 1-2-.424M30 29.576V50a2 2 0 0 0 4 0V29.576A4.95 4.95 0 0 1 32 30a4.95 4.95 0 0 1-2-.424M18 39c-1.654 0-3 1.346-3 3s1.346 3 3 3 3-1.346 3-3-1.346-3-3-3M32 22c-1.654 0-3 1.346-3 3s1.346 3 3 3 3-1.346 3-3-1.346-3-3-3M45.865 33c-1.655 0-3 1.346-3 3s1.345 3 3 3c1.654 0 3-1.346 3-3s-1.346-3-3-3"></path>
    <mask id="b" fill="#fff">
      <use xlink:href="#a"></use>
    </mask>
    <path fill="#FFFFFE" d="M44 40.631V50a2 2 0 0 0 4 0v-9.497c-.65.31-1.368.497-2.135.497-.66 0-1.288-.136-1.865-.369" mask="url(#b)"></path>
    <path fill="#4C5665" d="M45.865 39c-1.655 0-3-1.346-3-3s1.345-3 3-3c1.654 0 3 1.346 3 3s-1.346 3-3 3zM48 50a2 2 0 0 1-4 0v-9.369a4.969 4.969 0 0 0 1.865.369c.767 0 1.485-.187 2.135-.497V50zM32 28c-1.654 0-3-1.346-3-3s1.346-3 3-3 3 1.346 3 3-1.346 3-3 3zm2 22a2 2 0 0 1-4 0V29.576A4.95 4.95 0 0 0 32 30a4.95 4.95 0 0 0 2-.424V50zm-16-5c-1.654 0-3-1.346-3-3s1.346-3 3-3 3 1.346 3 3-1.346 3-3 3zm2 5a2 2 0 0 1-4 0v-3.424A4.95 4.95 0 0 0 18 47a4.95 4.95 0 0 0 2-.424V50zm-4-32a2 2 0 1 1 4 0v19.424A4.95 4.95 0 0 0 18 37a4.95 4.95 0 0 0-2 .424V18zm14 0a2 2 0 1 1 4 0v2.424A4.95 4.95 0 0 0 32 20a4.95 4.95 0 0 0-2 .424V18zm14 0a2 2 0 1 1 4 0v13.497A4.951 4.951 0 0 0 45.865 31c-.66 0-1.288.136-1.865.369V18zM32 0C14.327 0 0 14.327 0 32c0 17.673 14.327 32 32 32 17.673 0 32-14.327 32-32C64 14.327 49.673 0 32 0z" mask="url(#b)"></path>
  </g>
</svg>
